<svg xmlns:mydata="http://www.w3.org/2000/svg" mydata:contrastcolor="000000" mydata:template="Contrast" mydata:presentation="2.5" mydata:layouttype="undefined" mydata:specialfontid="undefined" mydata:id1="005" mydata:id2="859" mydata:companyname="shopycar" mydata:companytagline="" version="1.1" xmlns="http://www.w3.org/2000/svg" xmlns:xlink="http://www.w3.org/1999/xlink" style="height: 641px;" viewBox="0 0 550 470"><g fill="#000000" fill-rule="nonzero" stroke="none" stroke-width="1" stroke-linecap="butt" stroke-linejoin="miter" stroke-miterlimit="10" stroke-dasharray="" stroke-dashoffset="0" font-family="none" font-weight="none" font-size="none" text-anchor="none" style="mix-blend-mode: normal"><g data-paper-data="{&quot;isGlobalGroup&quot;:true,&quot;bounds&quot;:{&quot;x&quot;:65,&quot;y&quot;:211.434,&quot;width&quot;:420,&quot;height&quot;:47.13199999999998}}"><g data-paper-data="{&quot;isPrimaryText&quot;:true}" id="element-id-31291"><path d="M110.82109,244.43281c0,1.64142 -0.20784,3.11762 -0.62352,4.42863c-0.41568,1.311 -0.9646,2.46745 -1.64675,3.46936c-0.68215,1.0019 -1.48154,1.85459 -2.39817,2.55805c-0.91663,0.70346 -1.86525,1.27903 -2.84583,1.72668c-0.98059,0.44766 -1.97716,0.77807 -2.98972,0.99124c-1.01256,0.21317 -1.9665,0.31976 -2.86182,0.31976h-32.07156v-8.31367h32.07156c1.59878,0 2.8405,-0.46898 3.72516,-1.40693c0.88466,-0.93795 1.32699,-2.19566 1.32699,-3.77313c0,-0.76742 -0.11724,-1.47088 -0.35173,-2.11039c-0.23449,-0.63951 -0.57023,-1.19376 -1.00723,-1.66273c-0.437,-0.46898 -0.96993,-0.83137 -1.59878,-1.08717c-0.62885,-0.25581 -1.32699,-0.38371 -2.0944,-0.38371h-19.12143c-1.34298,0 -2.79254,-0.23982 -4.34869,-0.71945c-1.55615,-0.47963 -3.00038,-1.25238 -4.3327,-2.31823c-1.33232,-1.06585 -2.44081,-2.46212 -3.32547,-4.18881c-0.88466,-1.72668 -1.32699,-3.83708 -1.32699,-6.33118c0,-2.4941 0.44233,-4.59916 1.32699,-6.31519c0.88466,-1.71603 1.99315,-3.1123 3.32547,-4.18881c1.33232,-1.07651 2.77655,-1.85459 4.3327,-2.33422c1.55615,-0.47963 3.00571,-0.71945 4.34869,-0.71945h28.29844v8.31367h-28.29844c-1.57746,0 -2.80853,0.47963 -3.69319,1.4389c-0.88466,0.95927 -1.32699,2.22764 -1.32699,3.8051c0,1.59878 0.44233,2.86182 1.32699,3.78911c0.88466,0.92729 2.11572,1.39094 3.69319,1.39094h19.12143h0.06395c0.89532,0.02132 1.84393,0.14389 2.84583,0.36772c1.0019,0.22383 1.99848,0.57023 2.98972,1.03921c0.99124,0.46898 1.93453,1.06053 2.82984,1.77465c0.89532,0.71412 1.68938,1.57214 2.38219,2.57404c0.69281,1.0019 1.24172,2.15303 1.64675,3.45337c0.40502,1.30034 0.60754,2.77122 0.60754,4.41264z" data-paper-data="{&quot;glyphName&quot;:&quot;S&quot;,&quot;glyphIndex&quot;:0,&quot;firstGlyphOfWord&quot;:true,&quot;word&quot;:1}" fill="#ffd000" id="element-id-26684"></path><path d="M126.10544,230.81119h29.19376v-18.73772h8.31367v45.85306h-8.31367v-18.73772h-29.19376v18.73772h-8.31367v-45.85306h8.31367z" data-paper-data="{&quot;glyphName&quot;:&quot;H&quot;,&quot;glyphIndex&quot;:1,&quot;word&quot;:1}" fill="#ffd000" id="element-id-7046"></path><path d="M275.36772,231.25885c0,1.89722 -0.23449,3.59193 -0.70346,5.08413c-0.46898,1.4922 -1.10316,2.80853 -1.90255,3.94899c-0.79939,1.14046 -1.72136,2.11572 -2.76589,2.92577c-1.04454,0.81005 -2.13704,1.47088 -3.2775,1.98249c-1.14046,0.51161 -2.29159,0.88466 -3.45337,1.11915c-1.16178,0.23449 -2.25428,0.35173 -3.2775,0.35173h-18.80167v-8.31367h18.80167c1.06585,-0.08527 2.03045,-0.30377 2.8938,-0.6555c0.86334,-0.35173 1.60411,-0.82604 2.22231,-1.42292c0.6182,-0.59688 1.09783,-1.31633 1.4389,-2.15836c0.34107,-0.84203 0.51161,-1.79596 0.51161,-2.86182v-3.77313c-0.10659,-1.04454 -0.33041,-2.00381 -0.67149,-2.87781c-0.34107,-0.874 -0.80472,-1.6201 -1.39094,-2.23829c-0.58622,-0.6182 -1.29501,-1.10316 -2.12638,-1.45489c-0.83137,-0.35173 -1.79064,-0.5276 -2.87781,-0.5276h-18.73772c-1.10849,0 -1.95051,0.28778 -2.52608,0.86334c-0.57556,0.57556 -0.86334,1.40693 -0.86334,2.4941v34.18196h-8.31367v-34.18196c0,-2.13171 0.38904,-3.94366 1.16711,-5.43586c0.77807,-1.4922 1.748,-2.69661 2.90978,-3.61325c1.16178,-0.91663 2.42482,-1.58279 3.78911,-1.99848c1.36429,-0.41568 2.622,-0.62352 3.77313,-0.62352h18.80167c1.8759,0 3.55995,0.23982 5.05215,0.71945c1.4922,0.47963 2.80853,1.11915 3.94899,1.91854c1.14046,0.79939 2.11039,1.72136 2.90978,2.76589c0.79939,1.04454 1.46022,2.13704 1.98249,3.2775c0.52227,1.14046 0.90065,2.29159 1.13514,3.45337c0.23449,1.16178 0.35173,2.25428 0.35173,3.2775z" data-paper-data="{&quot;glyphName&quot;:&quot;P&quot;,&quot;glyphIndex&quot;:3,&quot;word&quot;:1}" fill="#ffd000" id="element-id-63776"></path><path d="M326.14503,227.42177c0,1.89722 -0.23982,3.59193 -0.71945,5.08413c-0.47963,1.4922 -1.11382,2.80853 -1.90255,3.94899c-0.78873,1.14046 -1.7107,2.11572 -2.76589,2.92577c-1.0552,0.81005 -2.1477,1.47621 -3.2775,1.99848c-1.12981,0.52227 -2.2756,0.90065 -3.43738,1.13514c-1.16178,0.23449 -2.25428,0.35173 -3.2775,0.35173h-3.35744v15.06053h-8.37762v-15.06053h-3.32547c-1.02322,0 -2.11572,-0.11724 -3.2775,-0.35173c-1.16178,-0.23449 -2.3129,-0.61287 -3.45337,-1.13514c-1.14046,-0.52227 -2.23297,-1.18843 -3.2775,-1.99848c-1.04454,-0.81005 -1.9665,-1.78531 -2.76589,-2.92577c-0.79939,-1.14046 -1.4389,-2.46212 -1.91854,-3.96498c-0.47963,-1.50285 -0.71945,-3.19223 -0.71945,-5.06814v-15.34831h8.31367v15.34831c0,1.08717 0.17054,2.06243 0.51161,2.92577c0.34107,0.86334 0.82071,1.60411 1.4389,2.22231c0.6182,0.6182 1.36962,1.0925 2.25428,1.42292c0.88466,0.33041 1.87057,0.49562 2.95775,0.49562h14.99657c0.78873,-0.1279 1.59878,-0.29311 2.43015,-0.49562c0.83137,-0.20251 1.58812,-0.54892 2.27027,-1.03921c0.68215,-0.49029 1.24705,-1.17244 1.69471,-2.04644c0.44766,-0.874 0.67149,-2.03578 0.67149,-3.48534v-15.34831h8.31367z" data-paper-data="{&quot;glyphName&quot;:&quot;Y&quot;,&quot;glyphIndex&quot;:4,&quot;word&quot;:1}" fill="#ffd000" id="element-id-30936"></path><path d="M374.68405,257.92653h-29.99315c-0.76742,0 -1.59345,-0.0906 -2.47811,-0.27179c-0.88466,-0.1812 -1.75866,-0.46365 -2.622,-0.84735c-0.86334,-0.38371 -1.68938,-0.87933 -2.47811,-1.48687c-0.78873,-0.60754 -1.48687,-1.34298 -2.0944,-2.20632c-0.60754,-0.86334 -1.0925,-1.86525 -1.45489,-3.00571c-0.36239,-1.14046 -0.54359,-2.42482 -0.54359,-3.85306v-22.51085c0,-0.76742 0.0906,-1.59345 0.27179,-2.47811c0.1812,-0.88466 0.46365,-1.75866 0.84735,-2.622c0.38371,-0.86334 0.88466,-1.68938 1.50285,-2.47811c0.6182,-0.78873 1.35896,-1.48687 2.22231,-2.0944c0.86334,-0.60754 1.85992,-1.0925 2.98972,-1.45489c1.12981,-0.36239 2.40883,-0.54359 3.83708,-0.54359h29.99315v8.31367h-29.99315c-1.08717,0 -1.91854,0.28778 -2.4941,0.86334c-0.57556,0.57556 -0.86334,1.42825 -0.86334,2.55805v22.4469c0,1.06585 0.29311,1.89189 0.87933,2.47811c0.58622,0.58622 1.41226,0.87933 2.47811,0.87933h29.99315z" data-paper-data="{&quot;glyphName&quot;:&quot;C&quot;,&quot;glyphIndex&quot;:5,&quot;word&quot;:1}" fill="#ffd000" id="element-id-7090"></path><path d="M427.53978,257.92653h-8.31367v-11.25542h-29.22573v11.25542h-8.31367v-22.92653c0,-3.34678 0.57556,-6.4271 1.72668,-9.24096c1.15112,-2.81386 2.7499,-5.23335 4.79635,-7.25847c2.04644,-2.02512 4.46593,-3.60259 7.25847,-4.73239c2.79254,-1.12981 5.84088,-1.69471 9.14503,-1.69471h18.73772c0.57556,0 1.11915,0.10659 1.63076,0.31976c0.51161,0.21317 0.95927,0.51161 1.34298,0.89532c0.38371,0.38371 0.68215,0.83137 0.89532,1.34298c0.21317,0.51161 0.31976,1.0552 0.31976,1.63076zM390.00038,238.35744h29.22573v-17.97031h-14.61287c-0.25581,0 -0.79406,0.0373 -1.61477,0.11191c-0.82071,0.07461 -1.76932,0.26113 -2.84583,0.55957c-1.07651,0.29844 -2.21165,0.75676 -3.40541,1.37495c-1.19376,0.6182 -2.29159,1.47088 -3.29349,2.55805c-1.0019,1.08717 -1.82794,2.44614 -2.47811,4.07689c-0.65017,1.63076 -0.97526,3.60792 -0.97526,5.93148z" data-paper-data="{&quot;glyphName&quot;:&quot;A&quot;,&quot;glyphIndex&quot;:6,&quot;word&quot;:1}" fill="#ffd000" id="element-id-98196"></path><path d="M483.01751,227.48573c0,1.89722 -0.23449,3.59193 -0.70346,5.08413c-0.46898,1.4922 -1.10316,2.80853 -1.90255,3.94899c-0.79939,1.14046 -1.72136,2.11572 -2.76589,2.92577c-1.04454,0.81005 -2.13704,1.47621 -3.2775,1.99848c-1.14046,0.52227 -2.29159,0.90065 -3.45337,1.13514c-1.16178,0.23449 -2.25428,0.35173 -3.2775,0.35173l17.36277,14.99657h-12.85421l-17.3308,-14.99657h-5.97944v-8.31367h18.80167c1.04454,-0.08527 1.99848,-0.30377 2.86182,-0.6555c0.86334,-0.35173 1.60944,-0.82604 2.23829,-1.42292c0.62885,-0.59688 1.11382,-1.31633 1.45489,-2.15836c0.34107,-0.84203 0.51161,-1.80662 0.51161,-2.8938v-5.244c0,-0.46898 -0.05862,-0.82604 -0.17587,-1.07118c-0.11724,-0.24515 -0.26646,-0.42634 -0.44766,-0.54359c-0.1812,-0.11724 -0.37305,-0.18652 -0.57556,-0.20784c-0.20251,-0.02132 -0.38904,-0.03198 -0.55957,-0.03198h-27.4351v37.5394h-8.31367v-41.66426c0,-0.57556 0.10659,-1.11915 0.31976,-1.63076c0.21317,-0.51161 0.50628,-0.95927 0.87933,-1.34298c0.37305,-0.38371 0.81538,-0.68215 1.32699,-0.89532c0.51161,-0.21317 1.06585,-0.31976 1.66273,-0.31976h31.55995c1.85459,0 3.42139,0.33574 4.70042,1.00723c1.27903,0.67149 2.31823,1.51351 3.11762,2.52608c0.79939,1.01256 1.37495,2.10506 1.72668,3.2775c0.35173,1.17244 0.5276,2.27027 0.5276,3.29349z" data-paper-data="{&quot;glyphName&quot;:&quot;R&quot;,&quot;glyphIndex&quot;:7,&quot;lastGlyphOfWord&quot;:true,&quot;word&quot;:1}" fill="#ffd000" id="element-id-4501"></path><g data-paper-data="{&quot;fillRule&quot;:&quot;evenodd&quot;,&quot;fillRuleOriginal&quot;:&quot;evenodd&quot;,&quot;isIcon&quot;:true,&quot;iconStyle&quot;:&quot;icon-in-text&quot;,&quot;selectedEffects&quot;:{&quot;container&quot;:&quot;&quot;,&quot;transformation&quot;:&quot;rotate0;translate50&quot;,&quot;pattern&quot;:&quot;&quot;},&quot;bounds&quot;:{&quot;x&quot;:171.895,&quot;y&quot;:211.434,&quot;width&quot;:49.56199999999998,&quot;height&quot;:47.13199999999998},&quot;iconType&quot;:&quot;icon&quot;,&quot;rawIconId&quot;:&quot;7b721058-1179-42c5-bf8f-455fc10c607a&quot;,&quot;isDetailed&quot;:false,&quot;suitableAsStandaloneIcon&quot;:true}" id="element-id-57496"><path d="M221.457,239.381c0,2.792 -0.48,5.361 -1.439,7.706c-0.959,2.345 -2.292,4.37 -3.997,6.075c-1.705,1.706 -3.725,3.033 -6.059,3.981c-2.335,0.949 -4.877,1.423 -7.627,1.423h-11.255c-2.75,0 -5.297,-0.474 -7.642,-1.423c-2.345,-0.948 -4.37,-2.275 -6.076,-3.981c-1.705,-1.705 -3.043,-3.73 -4.013,-6.075c-0.969,-2.345 -1.454,-4.914 -1.454,-7.706v-8.762c0,-2.771 0.485,-5.334 1.454,-7.69c0.97,-2.355 2.308,-4.38 4.013,-6.075c1.706,-1.695 3.731,-3.022 6.076,-3.981c2.345,-0.959 4.892,-1.439 7.642,-1.439h11.255c2.75,0 5.292,0.48 7.627,1.439c2.334,0.959 4.354,2.286 6.059,3.981c1.705,1.695 3.038,3.72 3.997,6.075c0.959,2.356 1.439,4.919 1.439,7.69zM186.49827,213.90893v42.18215h5.35551c-1.07863,-0.44544 -1.99488,-1.0378 -2.7731,-1.71451l1.82885,-2.09011c1.56759,1.19435 3.39643,1.9035 5.52387,1.9035c2.57532,0 4.21755,-1.1197 4.21755,-2.98588c0,-1.94082 -0.97041,-2.68729 -4.7774,-3.69502c-4.25487,-1.1197 -5.93443,-2.94855 -5.93443,-5.71049c0,-3.13517 3.0232,-5.4119 7.09146,-5.4119c2.76194,0 4.81473,0.82112 6.6809,2.23941l-1.45562,2.16476c-1.7542,-1.1197 -3.28446,-1.67956 -5.11331,-1.67956c-2.23941,0 -3.62037,1.00773 -3.62037,2.57532c0,1.60491 1.04506,2.35138 4.21755,3.17249c4.1429,1.04506 6.5316,2.68729 6.5316,6.12105c0,2.5161 -1.41583,4.19111 -3.43133,5.11095h6.01374v-42.18215z" data-paper-data="{&quot;isPathIcon&quot;:true}" fill="#ffd000" id="element-id-15681"></path></g></g></g></g><rect data-element-id="element-id-31291" stroke-width="2" fill="transparent" class="invisible-element-box grouping-element" x="65" y="211" width="420" height="47" data-element-name="isPrimaryText"></rect><rect data-element-id="element-id-57496" stroke-width="2" fill="transparent" class="invisible-element-box grouping-element" x="172" y="211" width="50" height="47" data-element-name="isIcon"></rect><rect data-element-id="element-id-15681" stroke-width="2" fill="transparent" class="invisible-element-box individual-element" x="172" y="211" width="50" height="47"></rect><rect data-element-id="element-id-4501" stroke-width="2" fill="transparent" class="invisible-element-box individual-element" x="437" y="212" width="48" height="46"></rect><rect data-element-id="element-id-26684" stroke-width="2" fill="transparent" class="invisible-element-box individual-element" x="65" y="212" width="46" height="46"></rect><rect data-element-id="element-id-7046" stroke-width="2" fill="transparent" class="invisible-element-box individual-element" x="118" y="212" width="46" height="46"></rect><rect data-element-id="element-id-63776" stroke-width="2" fill="transparent" class="invisible-element-box individual-element" x="230" y="212" width="46" height="46"></rect><rect data-element-id="element-id-30936" stroke-width="2" fill="transparent" class="invisible-element-box individual-element" x="280" y="212" width="46" height="46"></rect><rect data-element-id="element-id-98196" stroke-width="2" fill="transparent" class="invisible-element-box individual-element" x="382" y="212" width="46" height="46"></rect><rect data-element-id="element-id-7090" stroke-width="2" fill="transparent" class="invisible-element-box individual-element" x="333" y="212" width="42" height="46"></rect></svg>